ply
format ascii 1.0
comment Created by Blender 2.90.1 - www.blender.org
element vertex 8
property float x
property float y
property float z
element face 12
property list uchar uint vertex_indices
end_header
1.000000 1.000000 1.000000
-1.000000 -1.000000 1.000000
1.000000 -1.000000 1.000000
1.000000 -1.000000 -1.000000
-1.000000 -1.000000 -1.000000
-1.000000 1.000000 1.000000
-1.000000 1.000000 -1.000000
1.000000 1.000000 -1.000000
3 0 1 2
3 3 1 4
3 4 5 6
3 6 3 4
3 7 2 3
3 6 0 7
3 0 5 1
3 3 2 1
3 4 1 5
3 6 7 3
3 7 0 2
3 6 5 0
